<svg width="824" height="157" viewBox="0 0 824 157" fill="none" xmlns="http://www.w3.org/2000/svg">
  <path fill-rule="evenodd" clip-rule="evenodd" d="M798.332 43.0986V43.1018V43.105V43.1082V43.1113V43.1145V43.1176V43.1208V43.1239C798.31 48.052 798.288 52.9654 798.288 57.8569C796.944 56.9835 795.668 56.0875 794.414 55.207C791.949 53.4763 789.57 51.8057 786.929 50.4851C769.99 42.7149 747.074 47.895 734.719 62.2401C718.777 80.9683 718.577 113.245 734.32 132.371C747.472 148.31 773.777 152.694 790.914 141.736C793.116 140.311 795.065 138.55 797.145 136.671L797.147 136.67C798.266 135.658 799.424 134.612 800.679 133.567V144.326V148.047H823.994V144.326V13.2278V5.05031H813.062C812.069 4.983 811.059 4.98346 810.059 5.05031H798.288V13.2278C798.421 23.1932 798.376 33.1585 798.332 43.0648V43.0716V43.0784V43.0852V43.0919V43.0986ZM790.914 76.7844C796.893 82.1637 799.284 89.3363 799.085 97.3057C798.885 107.467 795.498 115.835 786.53 121.214C778.161 125.797 769.592 125.797 761.422 121.015C751.059 114.839 748.07 104.677 749.266 93.5202C750.262 83.5584 755.045 75.7882 764.61 72.0027C774.175 68.2172 783.143 69.8111 790.914 76.7844ZM264.001 148.046V99.6097C264.894 99.6097 265.538 99.546 266.106 99.4897C266.556 99.4452 266.958 99.4054 267.399 99.4054C270.724 99.3424 274.029 99.357 277.322 99.3716C284.721 99.4042 292.055 99.4365 299.388 98.5879C320.981 96.1354 337.375 77.5373 337.975 55.8737C338.774 32.3706 324.779 12.342 302.787 9.6851C288.115 7.9872 273.251 8.05253 258.395 8.11784C251.793 8.14686 245.192 8.17587 238.61 8.05011C238.41 8.05011 238.21 8.25449 238.01 8.45886V148.046H264.001ZM273.267 75.6493C270.253 75.5716 267.227 75.4936 264.201 75.4936C264.201 73.8586 264.001 72.8367 263.801 71.8149V32.575C267.153 32.575 270.446 32.4727 273.697 32.3717C280.723 32.1534 287.556 31.9411 294.39 32.7794C305.186 34.21 311.384 43.4068 311.184 54.2387C310.984 65.0705 303.787 74.2673 293.19 75.2892C286.696 75.9954 280.011 75.8231 273.267 75.6493ZM712.404 105.872H642.458C644.252 113.842 648.237 119.819 655.411 122.409C668.563 126.991 680.321 124.8 689.886 113.443C692.548 116.207 695.105 118.919 697.638 121.605L697.639 121.606C700.035 124.147 702.41 126.665 704.831 129.183C696.86 139.942 686.498 145.919 673.744 147.313C657.005 149.306 641.661 145.919 629.306 133.566C614.759 119.022 610.973 95.5119 619.342 75.7875C627.114 57.8562 644.65 47.0974 665.973 47.2967C689.089 47.4959 707.023 62.8371 710.81 85.9486C711.718 90.792 711.936 95.7503 712.163 100.911L712.164 100.912V100.914V100.915C712.236 102.546 712.308 104.198 712.404 105.872ZM685.9 88.5387C685.502 79.1745 677.331 71.0058 667.766 70.0096C655.013 68.8142 645.248 75.9867 642.857 88.5387H685.9ZM456.253 147.713C484.351 147.115 505.275 125.996 505.275 97.3062C505.275 67.8191 483.952 46.8993 454.061 47.0985C424.967 47.2977 403.644 68.2176 403.843 96.9077C404.043 129.782 428.354 148.311 456.253 147.713ZM456.651 70.0107C469.803 70.6084 479.169 81.9649 479.169 97.3062C479.169 115.038 467.014 126.395 450.474 123.805C447.883 123.406 445.093 122.41 442.702 121.015C432.34 115.437 427.756 101.092 431.543 87.7428C434.93 76.1871 444.496 69.413 456.651 70.0107ZM349.007 147.996H375.321H377.006V71.015H395.006H397.006V46.9987H395.006H364.506L364.475 47.0305C364.155 47.0094 363.832 46.9987 363.506 46.9987C355.499 46.9987 349.007 53.4904 349.007 61.4983C349.007 61.8611 349.02 62.2208 349.046 62.577L349.007 62.6168V147.996ZM541.347 58.322L561.001 121.845L580.654 58.3301C580.77 57.7808 580.935 57.2493 581.146 56.7405L581.272 56.3335L581.351 56.2811C582.781 53.3022 585.784 51.1991 589.306 51.0122L589.326 50.9986H589.818H611L579.967 147.996H561.74H542.036L511.003 50.9988H532.677L532.697 51.0124C536.218 51.1996 539.221 53.3022 540.651 56.2804L540.731 56.3336L540.86 56.7486C541.068 57.2524 541.231 57.7784 541.347 58.322Z" fill="black" />
  <path d="M151.996 0H0V156.37H151.996V0Z" fill="#2A59EF" />
  <path d="M76.5447 79.8256H0V156.37H76.5447V79.8256Z" fill="#87A4FF" />
</svg>
